<?xml version="1.0" encoding="UTF-8" standalone="no"?><!-- Generator: Gravit.io --><svg xmlns="http://www.w3.org/2000/svg" xmlns:xlink="http://www.w3.org/1999/xlink" style="isolation:isolate" viewBox="925 477 32 32" width="32pt" height="32pt"><defs><clipPath id="_clipPath_HVOpBExUpSOyAl39sHeoQ9yf89G9GUFM"><rect x="925" y="477" width="32" height="32"/></clipPath></defs><g clip-path="url(#_clipPath_HVOpBExUpSOyAl39sHeoQ9yf89G9GUFM)"><g><path d=" M 925 477 L 957 477 L 957 509 L 925 509 L 925 477 Z " fill="none"/><path d=" M 929 489 L 929 497 L 934.333 497 L 941 503.667 L 941 482.333 L 934.333 489 L 929 489 Z  M 947 493 C 947 490.64 945.64 488.613 943.667 487.627 L 943.667 498.36 C 945.64 497.387 947 495.36 947 493 Z  M 943.667 481.307 L 943.667 484.053 C 947.52 485.2 950.333 488.773 950.333 493 C 950.333 497.227 947.52 500.8 943.667 501.947 L 943.667 504.693 C 949.013 503.48 953 498.707 953 493 C 953 487.293 949.013 482.52 943.667 481.307 Z " fill="rgb(255,255,255)"/></g></g></svg>