<?xml version="1.0" encoding="UTF-8" standalone="no"?><!-- Generator: Gravit.io --><svg xmlns="http://www.w3.org/2000/svg" xmlns:xlink="http://www.w3.org/1999/xlink" style="isolation:isolate" viewBox="852 406 24 24" width="24pt" height="24pt"><defs><clipPath id="_clipPath_qnPWi9bHl5ManE4yiCGEdEispNw6rPdh"><rect x="852" y="406" width="24" height="24"/></clipPath></defs><g clip-path="url(#_clipPath_qnPWi9bHl5ManE4yiCGEdEispNw6rPdh)"><g><circle vector-effect="non-scaling-stroke" cx="864" cy="418" r="12" fill="rgb(240,240,240)"/><g><path d=" M 854.481 410.694 C 853.538 411.921 852.827 413.334 852.413 414.87 L 858.656 414.87 L 854.481 410.694 Z " fill="rgb(0,82,180)"/><path d=" M 875.587 414.87 C 875.173 413.334 874.462 411.921 873.519 410.694 L 869.344 414.87 L 875.587 414.87 Z " fill="rgb(0,82,180)"/><path d=" M 852.413 421.131 C 852.827 422.666 853.538 424.08 854.481 425.306 L 858.656 421.131 L 852.413 421.131 L 852.413 421.131 Z " fill="rgb(0,82,180)"/><path d=" M 871.306 408.481 C 870.079 407.538 868.666 406.827 867.13 406.413 L 867.13 412.656 L 871.306 408.481 Z " fill="rgb(0,82,180)"/><path d=" M 856.694 427.519 C 857.921 428.462 859.334 429.173 860.87 429.587 L 860.87 423.344 L 856.694 427.519 Z " fill="rgb(0,82,180)"/><path d=" M 860.87 406.413 C 859.334 406.827 857.921 407.538 856.694 408.481 L 860.87 412.656 L 860.87 406.413 Z " fill="rgb(0,82,180)"/><path d=" M 867.13 429.587 C 868.666 429.173 870.08 428.462 871.306 427.519 L 867.13 423.344 L 867.13 429.587 Z " fill="rgb(0,82,180)"/><path d=" M 869.344 421.131 L 873.519 425.306 C 874.462 424.08 875.173 422.666 875.587 421.131 L 869.344 421.131 Z " fill="rgb(0,82,180)"/></g><g><path d=" M 875.898 416.435 L 865.565 416.435 L 865.565 416.435 L 865.565 406.102 C 865.053 406.035 864.53 406 864 406 C 863.469 406 862.947 406.035 862.435 406.102 L 862.435 416.435 L 862.435 416.435 L 852.102 416.435 C 852.035 416.947 852 417.47 852 418 C 852 418.531 852.035 419.053 852.102 419.565 L 862.435 419.565 L 862.435 419.565 L 862.435 429.898 C 862.947 429.965 863.469 430 864 430 C 864.53 430 865.053 429.965 865.565 429.898 L 865.565 419.565 L 865.565 419.565 L 875.898 419.565 C 875.965 419.053 876 418.531 876 418 C 876 417.47 875.965 416.947 875.898 416.435 Z " fill="rgb(216,0,39)"/><path d=" M 867.13 421.131 L 867.13 421.131 L 872.485 426.485 C 872.732 426.239 872.966 425.982 873.191 425.715 L 868.606 421.13 L 867.13 421.13 L 867.13 421.131 Z " fill="rgb(216,0,39)"/><path d=" M 860.87 421.131 L 860.869 421.131 L 855.515 426.485 C 855.761 426.732 856.018 426.966 856.285 427.191 L 860.87 422.606 L 860.87 421.131 Z " fill="rgb(216,0,39)"/><path d=" M 860.87 414.87 L 860.87 414.87 L 855.515 409.515 C 855.268 409.761 855.034 410.018 854.809 410.285 L 859.394 414.87 L 860.87 414.87 L 860.87 414.87 Z " fill="rgb(216,0,39)"/><path d=" M 867.13 414.87 L 867.13 414.87 L 872.485 409.515 C 872.239 409.268 871.982 409.034 871.715 408.809 L 867.13 413.394 L 867.13 414.87 L 867.13 414.87 Z " fill="rgb(216,0,39)"/></g></g></g></svg>