<?xml version="1.0" encoding="UTF-8" standalone="no"?><!-- Generator: Gravit.io --><svg xmlns="http://www.w3.org/2000/svg" xmlns:xlink="http://www.w3.org/1999/xlink" style="isolation:isolate" viewBox="800 345 24 24" width="24pt" height="24pt"><defs><clipPath id="_clipPath_WjExCnv9xDeqBN1qxouoTE5CpPkY06qF"><rect x="800" y="345" width="24" height="24"/></clipPath></defs><g clip-path="url(#_clipPath_WjExCnv9xDeqBN1qxouoTE5CpPkY06qF)"><g><path d=" M 800.746 361.174 C 802.442 365.743 806.84 369 812 369 C 817.16 369 821.558 365.743 823.254 361.174 L 812 360.13 L 800.746 361.174 Z " fill="rgb(255,218,68)"/><path d=" M 812 345 C 806.84 345 802.442 348.257 800.746 352.826 L 812 353.87 L 823.254 352.826 C 821.558 348.257 817.16 345 812 345 Z " fill="rgb(0,0,0)"/><path d=" M 800.746 352.826 C 800.264 354.126 800 355.532 800 357 C 800 358.468 800.264 359.874 800.746 361.174 L 823.254 361.174 C 823.736 359.874 824 358.468 824 357 C 824 355.532 823.736 354.126 823.254 352.826 L 800.746 352.826 Z " fill="rgb(216,0,39)"/></g></g></svg>