<?xml version="1.0" encoding="UTF-8" standalone="no"?><!-- Generator: Gravit.io --><svg xmlns="http://www.w3.org/2000/svg" xmlns:xlink="http://www.w3.org/1999/xlink" style="isolation:isolate" viewBox="931 401 24 24" width="24pt" height="24pt"><defs><clipPath id="_clipPath_1W2IQstWZSWr8sAHqmAvg2Gw3oYlgKZt"><rect x="931" y="401" width="24" height="24"/></clipPath></defs><g clip-path="url(#_clipPath_1W2IQstWZSWr8sAHqmAvg2Gw3oYlgKZt)"><g><path d=" M 949 413 C 949 410.64 947.64 408.613 945.667 407.627 L 945.667 410.573 L 948.933 413.84 C 948.973 413.573 949 413.293 949 413 Z  M 952.333 413 C 952.333 414.253 952.067 415.427 951.613 416.52 L 953.627 418.533 C 954.507 416.88 955 415 955 413 C 955 407.293 951.013 402.52 945.667 401.307 L 945.667 404.053 C 949.52 405.2 952.333 408.773 952.333 413 Z  M 932.693 401 L 931 402.693 L 937.307 409 L 931 409 L 931 417 L 936.333 417 L 943 423.667 L 943 414.693 L 948.667 420.36 C 947.773 421.053 946.773 421.6 945.667 421.933 L 945.667 424.68 C 947.507 424.267 949.173 423.413 950.587 422.267 L 953.307 425 L 955 423.307 L 943 411.307 L 932.693 401 Z  M 943 402.333 L 940.213 405.12 L 943 407.907 L 943 402.333 Z " fill="rgb(0,0,0)"/></g></g></svg>