<?xml version="1.0" encoding="UTF-8" standalone="no"?><!-- Generator: Gravit.io --><svg xmlns="http://www.w3.org/2000/svg" xmlns:xlink="http://www.w3.org/1999/xlink" style="isolation:isolate" viewBox="1066.5 460.875 24 23.387" width="24pt" height="23.387pt"><defs><clipPath id="_clipPath_OsRJR5kXmGnqrJP0ooyPYH5RKmGzg0uv"><rect x="1066.5" y="460.875" width="24" height="23.387"/></clipPath></defs><g clip-path="url(#_clipPath_OsRJR5kXmGnqrJP0ooyPYH5RKmGzg0uv)"><clipPath id="_clipPath_8T4kAi35Rt69XWMAIi7zsQnABuJSw5zW"><rect x="1066.5" y="460.875" width="24" height="23.387" transform="matrix(1,0,0,1,0,0)" fill="rgb(255,255,255)"/></clipPath><g clip-path="url(#_clipPath_8T4kAi35Rt69XWMAIi7zsQnABuJSw5zW)"><g><g><path d=" M 1066.5 468.568 L 1066.5 476.568 L 1071.833 476.568 L 1078.5 483.235 L 1078.5 461.902 L 1071.833 468.568 L 1066.5 468.568 Z  M 1084.5 472.568 C 1084.5 470.208 1083.14 468.182 1081.167 467.195 L 1081.167 477.928 C 1083.14 476.955 1084.5 474.928 1084.5 472.568 Z  M 1081.167 460.875 L 1081.167 463.622 C 1085.02 464.768 1087.833 468.342 1087.833 472.568 C 1087.833 476.795 1085.02 480.368 1081.167 481.515 L 1081.167 484.262 C 1086.513 483.048 1090.5 478.275 1090.5 472.568 C 1090.5 466.862 1086.513 462.088 1081.167 460.875 Z " fill="rgb(0,0,0)"/></g></g></g></g></svg>